<svg width="600" height="308" viewBox="0 0 600 308" fill="none" xmlns="http://www.w3.org/2000/svg">
<g clip-path="url(#clip0_2149_205)">
<path d="M596.923 0H3.07692C1.37759 0 0 1.37759 0 3.07692V304.615C0 306.315 1.37759 307.692 3.07692 307.692H596.923C598.622 307.692 600 306.315 600 304.615V3.07692C600 1.37759 598.622 0 596.923 0Z" fill="#F5F6FA"/>
<path d="M590.769 7.69238H9.23084C8.38118 7.69238 7.69238 8.38118 7.69238 9.23084V298.462C7.69238 299.311 8.38118 300 9.23084 300H590.769C591.619 300 592.308 299.311 592.308 298.462V9.23084C592.308 8.38118 591.619 7.69238 590.769 7.69238Z" stroke="#323236" stroke-width="1.53846"/>
<path d="M300 7.69238V176.923" stroke="#323236" stroke-width="1.15385"/>
<path d="M480.77 176.923L592.308 176.923" stroke="#323236" stroke-width="1.15385"/>
<path d="M140.178 28.7693V28.2284L143.496 23.2765H140.142V22.6154H144.385V23.1563L141.068 28.1082H144.421V28.7693H140.178ZM150.574 25.6924C150.574 26.3414 150.457 26.9023 150.223 27.3751C149.988 27.8478 149.667 28.2124 149.258 28.4688C148.85 28.7252 148.383 28.8534 147.858 28.8534C147.333 28.8534 146.866 28.7252 146.458 28.4688C146.049 28.2124 145.728 27.8478 145.493 27.3751C145.259 26.9023 145.142 26.3414 145.142 25.6924C145.142 25.0433 145.259 24.4824 145.493 24.0097C145.728 23.5369 146.049 23.1723 146.458 22.9159C146.866 22.6595 147.333 22.5313 147.858 22.5313C148.383 22.5313 148.85 22.6595 149.258 22.9159C149.667 23.1723 149.988 23.5369 150.223 24.0097C150.457 24.4824 150.574 25.0433 150.574 25.6924ZM149.853 25.6924C149.853 25.1595 149.764 24.7098 149.586 24.3432C149.41 23.9766 149.17 23.6992 148.868 23.5109C148.567 23.3226 148.231 23.2284 147.858 23.2284C147.485 23.2284 147.148 23.3226 146.845 23.5109C146.545 23.6992 146.306 23.9766 146.127 24.3432C145.951 24.7098 145.863 25.1595 145.863 25.6924C145.863 26.2252 145.951 26.6749 146.127 27.0415C146.306 27.4081 146.545 27.6856 146.845 27.8739C147.148 28.0622 147.485 28.1563 147.858 28.1563C148.231 28.1563 148.567 28.0622 148.868 27.8739C149.17 27.6856 149.41 27.4081 149.586 27.0415C149.764 26.6749 149.853 26.2252 149.853 25.6924ZM156.707 22.6154V28.7693H155.986L152.633 23.9376H152.573V28.7693H151.827V22.6154H152.549L155.914 27.4592H155.974V22.6154H156.707ZM158.198 28.7693V22.6154H161.912V23.2765H158.944V25.3558H161.72V26.0169H158.944V28.1082H161.96V28.7693H158.198ZM167.691 22.6154V28.7693H166.945V23.3967H166.909L165.407 24.3943V23.6371L166.945 22.6154H167.691Z" fill="#686970"/>
<path d="M435.468 28.7693V28.2284L438.786 23.2765H435.432V22.6154H439.675V23.1563L436.358 28.1082H439.711V28.7693H435.468ZM445.864 25.6924C445.864 26.3414 445.747 26.9023 445.513 27.3751C445.278 27.8478 444.957 28.2124 444.548 28.4688C444.139 28.7252 443.673 28.8534 443.148 28.8534C442.623 28.8534 442.156 28.7252 441.748 28.4688C441.339 28.2124 441.017 27.8478 440.783 27.3751C440.549 26.9023 440.431 26.3414 440.431 25.6924C440.431 25.0433 440.549 24.4824 440.783 24.0097C441.017 23.5369 441.339 23.1723 441.748 22.9159C442.156 22.6595 442.623 22.5313 443.148 22.5313C443.673 22.5313 444.139 22.6595 444.548 22.9159C444.957 23.1723 445.278 23.5369 445.513 24.0097C445.747 24.4824 445.864 25.0433 445.864 25.6924ZM445.143 25.6924C445.143 25.1595 445.054 24.7098 444.876 24.3432C444.699 23.9766 444.46 23.6992 444.157 23.5109C443.857 23.3226 443.52 23.2284 443.148 23.2284C442.775 23.2284 442.438 23.3226 442.135 23.5109C441.835 23.6992 441.595 23.9766 441.417 24.3432C441.241 24.7098 441.153 25.1595 441.153 25.6924C441.153 26.2252 441.241 26.6749 441.417 27.0415C441.595 27.4081 441.835 27.6856 442.135 27.8739C442.438 28.0622 442.775 28.1563 443.148 28.1563C443.52 28.1563 443.857 28.0622 444.157 27.8739C444.46 27.6856 444.699 27.4081 444.876 27.0415C445.054 26.6749 445.143 26.2252 445.143 25.6924ZM451.997 22.6154V28.7693H451.276L447.922 23.9376H447.862V28.7693H447.117V22.6154H447.838L451.204 27.4592H451.264V22.6154H451.997ZM453.488 28.7693V22.6154H457.202V23.2765H454.233V25.3558H457.01V26.0169H454.233V28.1082H457.25V28.7693H453.488ZM460.817 28.7693V28.2284L462.848 26.0049C463.086 25.7444 463.283 25.5181 463.437 25.3258C463.591 25.1315 463.705 24.9492 463.78 24.7789C463.856 24.6066 463.894 24.4263 463.894 24.238C463.894 24.0217 463.842 23.8344 463.738 23.6761C463.635 23.5179 463.495 23.3957 463.317 23.3096C463.139 23.2234 462.938 23.1803 462.716 23.1803C462.48 23.1803 462.273 23.2294 462.097 23.3276C461.923 23.4237 461.787 23.559 461.691 23.7332C461.597 23.9075 461.55 24.1118 461.55 24.3462H460.841C460.841 23.9856 460.924 23.6691 461.09 23.3967C461.257 23.1243 461.483 22.9119 461.769 22.7597C462.058 22.6074 462.381 22.5313 462.74 22.5313C463.101 22.5313 463.42 22.6074 463.698 22.7597C463.977 22.9119 464.195 23.1172 464.354 23.3757C464.512 23.6341 464.591 23.9215 464.591 24.238C464.591 24.4644 464.55 24.6858 464.468 24.9021C464.388 25.1164 464.247 25.3558 464.047 25.6202C463.849 25.8827 463.573 26.2032 463.221 26.5818L461.838 28.0602V28.1082H464.699V28.7693H460.817Z" fill="#686970"/>
<path d="M284.721 193.846V193.305L288.038 188.353H284.685V187.692H288.928V188.233L285.61 193.185H288.964V193.846H284.721ZM295.117 190.769C295.117 191.418 295 191.979 294.765 192.452C294.531 192.925 294.209 193.289 293.801 193.546C293.392 193.802 292.925 193.93 292.4 193.93C291.876 193.93 291.409 193.802 291 193.546C290.591 193.289 290.27 192.925 290.036 192.452C289.801 191.979 289.684 191.418 289.684 190.769C289.684 190.12 289.801 189.559 290.036 189.087C290.27 188.614 290.591 188.249 291 187.993C291.409 187.736 291.876 187.608 292.4 187.608C292.925 187.608 293.392 187.736 293.801 187.993C294.209 188.249 294.531 188.614 294.765 189.087C295 189.559 295.117 190.12 295.117 190.769ZM294.396 190.769C294.396 190.236 294.306 189.787 294.128 189.42C293.952 189.054 293.712 188.776 293.41 188.588C293.11 188.399 292.773 188.305 292.4 188.305C292.028 188.305 291.69 188.399 291.388 188.588C291.087 188.776 290.848 189.054 290.67 189.42C290.493 189.787 290.405 190.236 290.405 190.769C290.405 191.302 290.493 191.752 290.67 192.118C290.848 192.485 291.087 192.762 291.388 192.951C291.69 193.139 292.028 193.233 292.4 193.233C292.773 193.233 293.11 193.139 293.41 192.951C293.712 192.762 293.952 192.485 294.128 192.118C294.306 191.752 294.396 191.302 294.396 190.769ZM301.25 187.692V193.846H300.528L297.175 189.014H297.115V193.846H296.37V187.692H297.091L300.456 192.536H300.516V187.692H301.25ZM302.741 193.846V187.692H306.455V188.353H303.486V190.433H306.262V191.094H303.486V193.185H306.503V193.846H302.741ZM312.149 193.93C311.752 193.93 311.399 193.862 311.088 193.726C310.78 193.59 310.534 193.4 310.352 193.158C310.172 192.914 310.073 192.63 310.057 192.308H310.815C310.831 192.506 310.899 192.677 311.019 192.822C311.139 192.964 311.296 193.074 311.491 193.152C311.685 193.23 311.9 193.269 312.137 193.269C312.401 193.269 312.636 193.223 312.84 193.131C313.044 193.039 313.204 192.911 313.321 192.746C313.437 192.582 313.495 192.392 313.495 192.176C313.495 191.949 313.439 191.75 313.327 191.578C313.214 191.403 313.05 191.267 312.834 191.169C312.617 191.071 312.353 191.022 312.041 191.022H311.548V190.361H312.041C312.285 190.361 312.499 190.317 312.684 190.228C312.87 190.14 313.015 190.016 313.119 189.856C313.225 189.696 313.279 189.507 313.279 189.291C313.279 189.083 313.232 188.901 313.14 188.747C313.048 188.593 312.918 188.473 312.75 188.386C312.583 188.3 312.387 188.257 312.161 188.257C311.948 188.257 311.748 188.296 311.56 188.374C311.373 188.451 311.221 188.562 311.103 188.708C310.985 188.852 310.921 189.026 310.911 189.231H310.19C310.202 188.908 310.299 188.626 310.481 188.383C310.663 188.139 310.902 187.949 311.196 187.813C311.493 187.676 311.818 187.608 312.173 187.608C312.553 187.608 312.88 187.685 313.152 187.84C313.425 187.992 313.634 188.193 313.78 188.444C313.927 188.694 314 188.964 314 189.255C314 189.601 313.909 189.897 313.726 190.141C313.546 190.386 313.301 190.555 312.99 190.649V190.697C313.379 190.761 313.682 190.927 313.901 191.193C314.119 191.457 314.228 191.785 314.228 192.176C314.228 192.51 314.137 192.811 313.955 193.077C313.774 193.341 313.528 193.55 313.215 193.702C312.903 193.854 312.547 193.93 312.149 193.93Z" fill="#686970"/>
<path d="M42.3073 53.0771C48.255 53.0771 53.0765 49.9775 53.0765 46.154C53.0765 42.3305 48.255 39.231 42.3073 39.231C36.3596 39.231 31.5381 42.3305 31.5381 46.154C31.5381 49.9775 36.3596 53.0771 42.3073 53.0771Z" fill="white" stroke="#B6B6BC" stroke-width="1.15385"/>
<path d="M61.5388 46.1541H23.0772C21.8027 46.1541 20.7695 47.1872 20.7695 48.4617V73.0771C20.7695 74.3516 21.8027 75.3848 23.0772 75.3848H61.5388C62.8133 75.3848 63.8465 74.3516 63.8465 73.0771V48.4617C63.8465 47.1872 62.8133 46.1541 61.5388 46.1541Z" fill="white" stroke="#323236" stroke-width="1.15385"/>
<path d="M38.7098 64.9233H37.9711L40.1075 59.1052H40.8348L42.9711 64.9233H42.2325L40.4939 60.0256H40.4484L38.7098 64.9233ZM38.9825 62.6506H41.9598V63.2756H38.9825V62.6506ZM45.5471 59.1052V64.9233H44.8426V59.8438H44.8085L43.3881 60.787V60.0711L44.8426 59.1052H45.5471Z" fill="#323236"/>
<path d="M368.538 53.6923C374.485 53.6923 379.307 50.5928 379.307 46.7693C379.307 42.9458 374.485 39.8462 368.538 39.8462C362.59 39.8462 357.769 42.9458 357.769 46.7693C357.769 50.5928 362.59 53.6923 368.538 53.6923Z" fill="white" stroke="#B6B6BC" stroke-width="1.15385"/>
<path d="M387.769 46.7693H349.308C348.033 46.7693 347 47.8025 347 49.077V73.6924C347 74.9669 348.033 76.0001 349.308 76.0001H387.769C389.044 76.0001 390.077 74.9669 390.077 73.6924V49.077C390.077 47.8025 389.044 46.7693 387.769 46.7693Z" fill="white" stroke="#323236" stroke-width="1.15385"/>
<path d="M364.666 65.5386V59.7204H366.701C367.106 59.7204 367.44 59.7905 367.703 59.9306C367.967 60.0689 368.163 60.2554 368.291 60.4903C368.42 60.7232 368.485 60.9818 368.485 61.2658C368.485 61.5158 368.44 61.7223 368.351 61.8852C368.264 62.048 368.148 62.1768 368.005 62.2715C367.862 62.3662 367.708 62.4363 367.541 62.4818V62.5386C367.719 62.5499 367.898 62.6124 368.078 62.7261C368.258 62.8397 368.409 63.0026 368.53 63.2147C368.651 63.4268 368.712 63.6863 368.712 63.9931C368.712 64.2848 368.646 64.5471 368.513 64.7801C368.38 65.013 368.171 65.1977 367.885 65.334C367.599 65.4704 367.227 65.5386 366.769 65.5386H364.666ZM365.371 64.9136H366.769C367.229 64.9136 367.556 64.8246 367.749 64.6465C367.944 64.4666 368.041 64.2488 368.041 63.9931C368.041 63.7961 367.991 63.6143 367.891 63.4477C367.791 63.2791 367.648 63.1446 367.462 63.0443C367.276 62.942 367.057 62.8908 366.803 62.8908H365.371V64.9136ZM365.371 62.2772H366.678C366.89 62.2772 367.081 62.2355 367.252 62.1522C367.424 62.0689 367.56 61.9515 367.661 61.7999C367.763 61.6484 367.814 61.4704 367.814 61.2658C367.814 61.0102 367.725 60.7933 367.547 60.6153C367.369 60.4354 367.087 60.3454 366.701 60.3454H365.371V62.2772ZM371.813 59.7204V65.5386H371.108V60.459H371.074L369.654 61.4022V60.6863L371.108 59.7204H371.813Z" fill="#323236"/>
<path d="M99.5378 53.6923C105.485 53.6923 110.307 50.5928 110.307 46.7693C110.307 42.9458 105.485 39.8462 99.5378 39.8462C93.5901 39.8462 88.7686 42.9458 88.7686 46.7693C88.7686 50.5928 93.5901 53.6923 99.5378 53.6923Z" fill="white" stroke="#B6B6BC" stroke-width="1.15385"/>
<path d="M118.769 46.7693H80.3077C79.0332 46.7693 78 47.8025 78 49.077V73.6924C78 74.9669 79.0332 76.0001 80.3077 76.0001H118.769C120.044 76.0001 121.077 74.9669 121.077 73.6924V49.077C121.077 47.8025 120.044 46.7693 118.769 46.7693Z" fill="white" stroke="#323236" stroke-width="1.15385"/>
<path d="M95.241 65.5386H94.5024L96.6388 59.7204H97.366L99.5024 65.5386H98.7638L97.0251 60.6408H96.9797L95.241 65.5386ZM95.5138 63.2658H98.491V63.8908H95.5138V63.2658ZM100.306 65.5386V65.0272L102.227 62.9249C102.452 62.6787 102.638 62.4647 102.784 62.2829C102.929 62.0992 103.037 61.9268 103.108 61.7658C103.179 61.603 103.215 61.4325 103.215 61.2545C103.215 61.0499 103.166 60.8729 103.068 60.7232C102.971 60.5736 102.839 60.4581 102.67 60.3766C102.501 60.2952 102.312 60.2545 102.102 60.2545C101.878 60.2545 101.683 60.3009 101.517 60.3937C101.352 60.4846 101.224 60.6124 101.133 60.7772C101.044 60.942 101 61.1352 101 61.3568H100.329C100.329 61.0158 100.408 60.7166 100.565 60.459C100.722 60.2015 100.936 60.0007 101.207 59.8568C101.48 59.7128 101.786 59.6408 102.125 59.6408C102.465 59.6408 102.768 59.7128 103.031 59.8568C103.294 60.0007 103.501 60.1948 103.65 60.4391C103.8 60.6835 103.875 60.9552 103.875 61.2545C103.875 61.4685 103.836 61.6778 103.758 61.8823C103.682 62.085 103.55 62.3113 103.36 62.5613C103.173 62.8094 102.912 63.1124 102.579 63.4704L101.272 64.8681V64.9136H103.977V65.5386H100.306Z" fill="#323236"/>
<path d="M425.768 54.3076C431.716 54.3076 436.537 51.208 436.537 47.3845C436.537 43.561 431.716 40.4614 425.768 40.4614C419.821 40.4614 414.999 43.561 414.999 47.3845C414.999 51.208 419.821 54.3076 425.768 54.3076Z" fill="white" stroke="#B6B6BC" stroke-width="1.15385"/>
<path d="M445 47.3845H406.538C405.264 47.3845 404.23 48.4177 404.23 49.6922V74.3076C404.23 75.5821 405.264 76.6153 406.538 76.6153H445C446.274 76.6153 447.307 75.5821 447.307 74.3076V49.6922C447.307 48.4177 446.274 47.3845 445 47.3845Z" fill="white" stroke="#323236" stroke-width="1.15385"/>
<path d="M421.334 66.1538V60.3356H423.369C423.774 60.3356 424.108 60.4057 424.371 60.5459C424.635 60.6841 424.831 60.8707 424.959 61.1055C425.088 61.3385 425.153 61.597 425.153 61.8811C425.153 62.1311 425.108 62.3375 425.019 62.5004C424.932 62.6633 424.816 62.7921 424.672 62.8868C424.53 62.9815 424.376 63.0515 424.209 63.097V63.1538C424.387 63.1652 424.566 63.2277 424.746 63.3413C424.926 63.4549 425.077 63.6178 425.198 63.8299C425.319 64.0421 425.38 64.3015 425.38 64.6084C425.38 64.9 425.314 65.1623 425.181 65.3953C425.048 65.6282 424.839 65.8129 424.553 65.9493C424.267 66.0856 423.895 66.1538 423.437 66.1538H421.334ZM422.039 65.5288H423.437C423.897 65.5288 424.224 65.4398 424.417 65.2618C424.612 65.0818 424.709 64.864 424.709 64.6084C424.709 64.4114 424.659 64.2296 424.559 64.0629C424.458 63.8943 424.315 63.7599 424.13 63.6595C423.944 63.5572 423.725 63.5061 423.471 63.5061H422.039V65.5288ZM422.039 62.8924H423.346C423.558 62.8924 423.749 62.8508 423.92 62.7674C424.092 62.6841 424.228 62.5667 424.329 62.4152C424.431 62.2637 424.482 62.0856 424.482 61.8811C424.482 61.6254 424.393 61.4085 424.215 61.2305C424.037 61.0506 423.755 60.9606 423.369 60.9606H422.039V62.8924ZM426.435 66.1538V65.6424L428.356 63.5402C428.581 63.294 428.767 63.0799 428.913 62.8981C429.058 62.7144 429.166 62.5421 429.236 62.3811C429.308 62.2182 429.344 62.0477 429.344 61.8697C429.344 61.6652 429.295 61.4881 429.197 61.3385C429.1 61.1888 428.967 61.0733 428.799 60.9919C428.63 60.9104 428.441 60.8697 428.231 60.8697C428.007 60.8697 427.812 60.9161 427.646 61.0089C427.481 61.0998 427.353 61.2277 427.262 61.3924C427.173 61.5572 427.128 61.7504 427.128 61.972H426.458C426.458 61.6311 426.537 61.3318 426.694 61.0743C426.851 60.8167 427.065 60.6159 427.336 60.472C427.609 60.3281 427.914 60.2561 428.253 60.2561C428.594 60.2561 428.896 60.3281 429.16 60.472C429.423 60.6159 429.629 60.8101 429.779 61.0544C429.929 61.2987 430.003 61.5705 430.003 61.8697C430.003 62.0837 429.965 62.293 429.887 62.4976C429.811 62.7002 429.679 62.9265 429.489 63.1765C429.302 63.4246 429.041 63.7277 428.708 64.0856L427.401 65.4834V65.5288H430.106V66.1538H426.435Z" fill="#323236"/>
<path d="M173.538 53.6923C179.485 53.6923 184.307 50.5928 184.307 46.7693C184.307 42.9458 179.485 39.8462 173.538 39.8462C167.59 39.8462 162.769 42.9458 162.769 46.7693C162.769 50.5928 167.59 53.6923 173.538 53.6923Z" fill="white" stroke="#B6B6BC" stroke-width="1.15385"/>
<path d="M192.769 46.7693H154.308C153.033 46.7693 152 47.8025 152 49.077V73.6924C152 74.9669 153.033 76.0001 154.308 76.0001H192.769C194.044 76.0001 195.077 74.9669 195.077 73.6924V49.077C195.077 47.8025 194.044 46.7693 192.769 46.7693Z" fill="white" stroke="#323236" stroke-width="1.15385"/>
<path d="M169.116 65.5386H168.377L170.514 59.7204H171.241L173.377 65.5386H172.639L170.9 60.6408H170.855L169.116 65.5386ZM169.389 63.2658H172.366V63.8908H169.389V63.2658ZM176.147 65.6181C175.772 65.6181 175.438 65.5537 175.144 65.4249C174.853 65.2961 174.621 65.1172 174.448 64.888C174.278 64.6569 174.185 64.389 174.17 64.084H174.886C174.901 64.2715 174.965 64.4335 175.079 64.5698C175.193 64.7043 175.341 64.8085 175.525 64.8823C175.709 64.9562 175.912 64.9931 176.136 64.9931C176.386 64.9931 176.608 64.9496 176.801 64.8624C176.994 64.7753 177.145 64.6541 177.255 64.4988C177.365 64.3435 177.42 64.1636 177.42 63.959C177.42 63.745 177.367 63.5566 177.261 63.3937C177.155 63.2289 177 63.1001 176.795 63.0073C176.59 62.9145 176.34 62.8681 176.045 62.8681H175.579V62.2431H176.045C176.276 62.2431 176.479 62.2015 176.653 62.1181C176.829 62.0348 176.966 61.9174 177.065 61.7658C177.165 61.6143 177.215 61.4363 177.215 61.2318C177.215 61.0348 177.172 60.8634 177.085 60.7176C176.998 60.5717 176.875 60.4581 176.715 60.3766C176.558 60.2952 176.373 60.2545 176.159 60.2545C175.958 60.2545 175.768 60.2914 175.59 60.3653C175.414 60.4372 175.27 60.5424 175.159 60.6806C175.047 60.817 174.986 60.9818 174.977 61.1749H174.295C174.306 60.87 174.398 60.603 174.571 60.3738C174.743 60.1427 174.968 59.9628 175.247 59.834C175.527 59.7052 175.835 59.6408 176.17 59.6408C176.53 59.6408 176.839 59.7138 177.096 59.8596C177.354 60.0035 177.552 60.1939 177.69 60.4306C177.828 60.6674 177.897 60.923 177.897 61.1977C177.897 61.5253 177.811 61.8047 177.639 62.0357C177.468 62.2668 177.236 62.4268 176.943 62.5158V62.5613C177.31 62.6219 177.597 62.7782 177.804 63.0301C178.01 63.2801 178.113 63.5897 178.113 63.959C178.113 64.2753 178.027 64.5594 177.855 64.8113C177.684 65.0613 177.451 65.2583 177.156 65.4022C176.86 65.5461 176.524 65.6181 176.147 65.6181Z" fill="#323236"/>
<path d="M499.768 54.3076C505.716 54.3076 510.537 51.208 510.537 47.3845C510.537 43.561 505.716 40.4614 499.768 40.4614C493.821 40.4614 488.999 43.561 488.999 47.3845C488.999 51.208 493.821 54.3076 499.768 54.3076Z" fill="white" stroke="#B6B6BC" stroke-width="1.15385"/>
<path d="M519 47.3845H480.538C479.264 47.3845 478.23 48.4177 478.23 49.6922V74.3076C478.23 75.5821 479.264 76.6153 480.538 76.6153H519C520.274 76.6153 521.307 75.5821 521.307 74.3076V49.6922C521.307 48.4177 520.274 47.3845 519 47.3845Z" fill="white" stroke="#323236" stroke-width="1.15385"/>
<path d="M495.209 66.1538V60.3356H497.244C497.649 60.3356 497.983 60.4057 498.246 60.5459C498.51 60.6841 498.706 60.8707 498.834 61.1055C498.963 61.3385 499.028 61.597 499.028 61.8811C499.028 62.1311 498.983 62.3375 498.894 62.5004C498.807 62.6633 498.691 62.7921 498.547 62.8868C498.405 62.9815 498.251 63.0515 498.084 63.097V63.1538C498.262 63.1652 498.441 63.2277 498.621 63.3413C498.801 63.4549 498.952 63.6178 499.073 63.8299C499.194 64.0421 499.255 64.3015 499.255 64.6084C499.255 64.9 499.189 65.1623 499.056 65.3953C498.923 65.6282 498.714 65.8129 498.428 65.9493C498.142 66.0856 497.77 66.1538 497.312 66.1538H495.209ZM495.914 65.5288H497.312C497.772 65.5288 498.099 65.4398 498.292 65.2618C498.487 65.0818 498.584 64.864 498.584 64.6084C498.584 64.4114 498.534 64.2296 498.434 64.0629C498.333 63.8943 498.19 63.7599 498.005 63.6595C497.819 63.5572 497.6 63.5061 497.346 63.5061H495.914V65.5288ZM495.914 62.8924H497.221C497.433 62.8924 497.624 62.8508 497.795 62.7674C497.967 62.6841 498.103 62.5667 498.204 62.4152C498.306 62.2637 498.357 62.0856 498.357 61.8811C498.357 61.6254 498.268 61.4085 498.09 61.2305C497.912 61.0506 497.63 60.9606 497.244 60.9606H495.914V62.8924ZM502.276 66.2334C501.901 66.2334 501.567 66.169 501.273 66.0402C500.982 65.9114 500.75 65.7324 500.577 65.5032C500.407 65.2722 500.314 65.0042 500.299 64.6993H501.015C501.03 64.8868 501.094 65.0487 501.208 65.1851C501.322 65.3195 501.47 65.4237 501.654 65.4976C501.838 65.5714 502.041 65.6084 502.265 65.6084C502.515 65.6084 502.736 65.5648 502.93 65.4777C503.123 65.3906 503.274 65.2693 503.384 65.114C503.494 64.9587 503.549 64.7788 503.549 64.5743C503.549 64.3602 503.496 64.1718 503.39 64.0089C503.284 63.8441 503.128 63.7154 502.924 63.6226C502.719 63.5298 502.469 63.4834 502.174 63.4834H501.708V62.8584H502.174C502.405 62.8584 502.608 62.8167 502.782 62.7334C502.958 62.65 503.095 62.5326 503.194 62.3811C503.294 62.2296 503.344 62.0515 503.344 61.847C503.344 61.65 503.301 61.4786 503.214 61.3328C503.127 61.187 503.003 61.0733 502.844 60.9919C502.687 60.9104 502.502 60.8697 502.288 60.8697C502.087 60.8697 501.897 60.9066 501.719 60.9805C501.543 61.0525 501.399 61.1576 501.288 61.2959C501.176 61.4322 501.115 61.597 501.106 61.7902H500.424C500.435 61.4852 500.527 61.2182 500.699 60.989C500.872 60.758 501.097 60.5781 501.376 60.4493C501.656 60.3205 501.964 60.2561 502.299 60.2561C502.659 60.2561 502.967 60.329 503.225 60.4748C503.483 60.6188 503.681 60.8091 503.819 61.0459C503.957 61.2826 504.026 61.5383 504.026 61.8129C504.026 62.1406 503.94 62.4199 503.768 62.651C503.597 62.882 503.365 63.0421 503.072 63.1311V63.1765C503.439 63.2371 503.726 63.3934 503.932 63.6453C504.139 63.8953 504.242 64.2049 504.242 64.5743C504.242 64.8906 504.156 65.1746 503.984 65.4265C503.813 65.6765 503.58 65.8735 503.285 66.0174C502.989 66.1614 502.653 66.2334 502.276 66.2334Z" fill="#323236"/>
<path d="M230.538 53.6923C236.485 53.6923 241.307 50.5928 241.307 46.7693C241.307 42.9458 236.485 39.8462 230.538 39.8462C224.59 39.8462 219.769 42.9458 219.769 46.7693C219.769 50.5928 224.59 53.6923 230.538 53.6923Z" fill="white" stroke="#B6B6BC" stroke-width="1.15385"/>
<path d="M249.769 46.7693H211.308C210.033 46.7693 209 47.8025 209 49.077V73.6924C209 74.9669 210.033 76.0001 211.308 76.0001H249.769C251.044 76.0001 252.077 74.9669 252.077 73.6924V49.077C252.077 47.8025 251.044 46.7693 249.769 46.7693Z" fill="white" stroke="#323236" stroke-width="1.15385"/>
<path d="M226.097 65.5386H225.358L227.494 59.7204H228.222L230.358 65.5386H229.619L227.881 60.6408H227.835L226.097 65.5386ZM226.369 63.2658H229.347V63.8908H226.369V63.2658ZM231.025 64.3454V63.7658L233.582 59.7204H234.003V60.6181H233.719L231.787 63.6749V63.7204H235.23V64.3454H231.025ZM233.764 65.5386V64.1693V63.8994V59.7204H234.435V65.5386H233.764Z" fill="#323236"/>
<path d="M556.768 54.3076C562.716 54.3076 567.537 51.208 567.537 47.3845C567.537 43.561 562.716 40.4614 556.768 40.4614C550.821 40.4614 545.999 43.561 545.999 47.3845C545.999 51.208 550.821 54.3076 556.768 54.3076Z" fill="white" stroke="#B6B6BC" stroke-width="1.15385"/>
<path d="M576 47.3845H537.538C536.264 47.3845 535.23 48.4177 535.23 49.6922V74.3076C535.23 75.5821 536.264 76.6153 537.538 76.6153H576C577.274 76.6153 578.307 75.5821 578.307 74.3076V49.6922C578.307 48.4177 577.274 47.3845 576 47.3845Z" fill="white" stroke="#323236" stroke-width="1.15385"/>
<path d="M552.19 66.1538V60.3356H554.224C554.629 60.3356 554.964 60.4057 555.227 60.5459C555.49 60.6841 555.686 60.8707 555.815 61.1055C555.944 61.3385 556.008 61.597 556.008 61.8811C556.008 62.1311 555.964 62.3375 555.875 62.5004C555.787 62.6633 555.672 62.7921 555.528 62.8868C555.386 62.9815 555.232 63.0515 555.065 63.097V63.1538C555.243 63.1652 555.422 63.2277 555.602 63.3413C555.782 63.4549 555.932 63.6178 556.054 63.8299C556.175 64.0421 556.235 64.3015 556.235 64.6084C556.235 64.9 556.169 65.1623 556.036 65.3953C555.904 65.6282 555.695 65.8129 555.409 65.9493C555.123 66.0856 554.751 66.1538 554.292 66.1538H552.19ZM552.894 65.5288H554.292C554.752 65.5288 555.079 65.4398 555.272 65.2618C555.467 65.0818 555.565 64.864 555.565 64.6084C555.565 64.4114 555.515 64.2296 555.414 64.0629C555.314 63.8943 555.171 63.7599 554.985 63.6595C554.8 63.5572 554.58 63.5061 554.326 63.5061H552.894V65.5288ZM552.894 62.8924H554.201C554.413 62.8924 554.605 62.8508 554.775 62.7674C554.947 62.6841 555.084 62.5667 555.184 62.4152C555.286 62.2637 555.338 62.0856 555.338 61.8811C555.338 61.6254 555.249 61.4085 555.071 61.2305C554.893 61.0506 554.61 60.9606 554.224 60.9606H552.894V62.8924ZM557.154 64.9606V64.3811L559.711 60.3356H560.132V61.2334H559.848L557.916 64.2902V64.3356H561.359V64.9606H557.154ZM559.893 66.1538V64.7845V64.5146V60.3356H560.563V66.1538H559.893Z" fill="#323236"/>
<path d="M42.5378 117.692C48.4855 117.692 53.307 114.593 53.307 110.769C53.307 106.946 48.4855 103.846 42.5378 103.846C36.5901 103.846 31.7686 106.946 31.7686 110.769C31.7686 114.593 36.5901 117.692 42.5378 117.692Z" fill="white" stroke="#B6B6BC" stroke-width="1.15385"/>
<path d="M61.7692 110.769H23.3077C22.0332 110.769 21 111.802 21 113.077V137.692C21 138.967 22.0332 140 23.3077 140H61.7692C63.0437 140 64.0769 138.967 64.0769 137.692V113.077C64.0769 111.802 63.0437 110.769 61.7692 110.769Z" fill="white" stroke="#323236" stroke-width="1.15385"/>
<path d="M38.2293 129.539H37.4907L39.627 123.72H40.3543L42.4907 129.539H41.752L40.0134 124.641H39.968L38.2293 129.539ZM38.502 127.266H41.4793V127.891H38.502V127.266ZM45.1128 129.618C44.7795 129.618 44.4793 129.552 44.2123 129.419C43.9452 129.287 43.7312 129.105 43.5702 128.874C43.4092 128.643 43.3212 128.379 43.306 128.084H43.9878C44.0144 128.347 44.1337 128.565 44.3458 128.737C44.5598 128.908 44.8155 128.993 45.1128 128.993C45.3515 128.993 45.5636 128.937 45.7492 128.826C45.9367 128.714 46.0835 128.56 46.1895 128.365C46.2975 128.168 46.3515 127.946 46.3515 127.698C46.3515 127.444 46.2956 127.218 46.1839 127.019C46.074 126.818 45.9225 126.66 45.7293 126.544C45.5361 126.429 45.3155 126.37 45.0674 126.368C44.8894 126.366 44.7066 126.394 44.5191 126.451C44.3316 126.505 44.1772 126.576 44.056 126.664L43.3969 126.584L43.7492 123.72H46.7719V124.345H44.3401L44.1356 126.061H44.1697C44.289 125.967 44.4386 125.888 44.6185 125.826C44.7984 125.763 44.9859 125.732 45.181 125.732C45.5371 125.732 45.8543 125.817 46.1327 125.987C46.413 126.156 46.6327 126.387 46.7918 126.681C46.9528 126.974 47.0333 127.309 47.0333 127.686C47.0333 128.058 46.95 128.389 46.7833 128.681C46.6185 128.97 46.3912 129.2 46.1015 129.368C45.8117 129.535 45.4822 129.618 45.1128 129.618Z" fill="#323236"/>
<path d="M368.768 118.308C374.716 118.308 379.537 115.208 379.537 111.385C379.537 107.561 374.716 104.461 368.768 104.461C362.821 104.461 357.999 107.561 357.999 111.385C357.999 115.208 362.821 118.308 368.768 118.308Z" fill="white" stroke="#B6B6BC" stroke-width="1.15385"/>
<path d="M388 111.385H349.538C348.264 111.385 347.23 112.418 347.23 113.692V138.308C347.23 139.582 348.264 140.615 349.538 140.615H388C389.274 140.615 390.307 139.582 390.307 138.308V113.692C390.307 112.418 389.274 111.385 388 111.385Z" fill="white" stroke="#323236" stroke-width="1.15385"/>
<path d="M364.323 130.154V124.336H366.357C366.762 124.336 367.096 124.406 367.36 124.546C367.623 124.684 367.819 124.871 367.948 125.106C368.076 125.338 368.141 125.597 368.141 125.881C368.141 126.131 368.096 126.338 368.007 126.5C367.92 126.663 367.805 126.792 367.661 126.887C367.519 126.981 367.364 127.052 367.198 127.097V127.154C367.376 127.165 367.555 127.228 367.735 127.341C367.915 127.455 368.065 127.618 368.186 127.83C368.308 128.042 368.368 128.302 368.368 128.608C368.368 128.9 368.302 129.162 368.169 129.395C368.037 129.628 367.827 129.813 367.541 129.949C367.255 130.086 366.883 130.154 366.425 130.154H364.323ZM365.027 129.529H366.425C366.885 129.529 367.212 129.44 367.405 129.262C367.6 129.082 367.698 128.864 367.698 128.608C367.698 128.411 367.648 128.23 367.547 128.063C367.447 127.894 367.304 127.76 367.118 127.659C366.933 127.557 366.713 127.506 366.459 127.506H365.027V129.529ZM365.027 126.892H366.334C366.546 126.892 366.737 126.851 366.908 126.767C367.08 126.684 367.217 126.567 367.317 126.415C367.419 126.264 367.47 126.086 367.47 125.881C367.47 125.625 367.381 125.409 367.203 125.231C367.025 125.051 366.743 124.961 366.357 124.961H365.027V126.892ZM371.242 130.233C370.908 130.233 370.608 130.167 370.341 130.034C370.074 129.902 369.86 129.72 369.699 129.489C369.538 129.258 369.45 128.995 369.435 128.699H370.117C370.143 128.963 370.263 129.18 370.475 129.353C370.689 129.523 370.944 129.608 371.242 129.608C371.48 129.608 371.693 129.552 371.878 129.441C372.066 129.329 372.212 129.176 372.318 128.981C372.426 128.784 372.48 128.561 372.48 128.313C372.48 128.059 372.425 127.833 372.313 127.634C372.203 127.433 372.051 127.275 371.858 127.159C371.665 127.044 371.444 126.985 371.196 126.983C371.018 126.981 370.835 127.009 370.648 127.066C370.46 127.121 370.306 127.192 370.185 127.279L369.526 127.199L369.878 124.336H372.901V124.961H370.469L370.264 126.677H370.299C370.418 126.582 370.568 126.503 370.747 126.441C370.927 126.378 371.115 126.347 371.31 126.347C371.666 126.347 371.983 126.432 372.262 126.603C372.542 126.771 372.762 127.002 372.921 127.296C373.082 127.589 373.162 127.925 373.162 128.302C373.162 128.673 373.079 129.004 372.912 129.296C372.747 129.586 372.52 129.815 372.23 129.983C371.941 130.15 371.611 130.233 371.242 130.233Z" fill="#323236"/>
<path d="M99.7683 118.308C105.716 118.308 110.537 115.208 110.537 111.385C110.537 107.561 105.716 104.461 99.7683 104.461C93.8206 104.461 88.999 107.561 88.999 111.385C88.999 115.208 93.8206 118.308 99.7683 118.308Z" fill="white" stroke="#B6B6BC" stroke-width="1.15385"/>
<path d="M119 111.385H80.5382C79.2637 111.385 78.2305 112.418 78.2305 113.692V138.308C78.2305 139.582 79.2637 140.615 80.5382 140.615H119C120.274 140.615 121.307 139.582 121.307 138.308V113.692C121.307 112.418 120.274 111.385 119 111.385Z" fill="white" stroke="#323236" stroke-width="1.15385"/>
<path d="M95.3973 130.154H94.6586L96.795 124.336H97.5223L99.6586 130.154H98.92L97.1814 125.256H97.1359L95.3973 130.154ZM95.67 127.881H98.6473V128.506H95.67V127.881ZM102.394 130.233C102.156 130.23 101.917 130.184 101.679 130.097C101.44 130.01 101.222 129.863 101.025 129.657C100.828 129.448 100.67 129.167 100.551 128.813C100.431 128.457 100.372 128.01 100.372 127.472C100.372 126.957 100.42 126.5 100.517 126.103C100.613 125.703 100.753 125.367 100.937 125.094C101.121 124.82 101.342 124.611 101.602 124.469C101.863 124.327 102.158 124.256 102.485 124.256C102.811 124.256 103.101 124.321 103.355 124.452C103.61 124.581 103.819 124.761 103.98 124.992C104.141 125.223 104.245 125.489 104.292 125.79H103.599C103.535 125.529 103.41 125.312 103.224 125.14C103.038 124.967 102.792 124.881 102.485 124.881C102.035 124.881 101.679 125.077 101.42 125.469C101.162 125.861 101.033 126.411 101.031 127.12H101.076C101.182 126.959 101.308 126.821 101.454 126.708C101.602 126.592 101.765 126.503 101.943 126.441C102.121 126.378 102.309 126.347 102.508 126.347C102.841 126.347 103.146 126.43 103.423 126.597C103.699 126.762 103.921 126.99 104.088 127.282C104.254 127.571 104.338 127.904 104.338 128.279C104.338 128.639 104.257 128.968 104.096 129.267C103.935 129.565 103.709 129.802 103.417 129.978C103.127 130.152 102.786 130.237 102.394 130.233ZM102.394 129.608C102.633 129.608 102.847 129.549 103.036 129.429C103.228 129.31 103.378 129.15 103.488 128.949C103.6 128.749 103.656 128.525 103.656 128.279C103.656 128.038 103.602 127.82 103.494 127.623C103.388 127.424 103.241 127.266 103.054 127.148C102.868 127.031 102.656 126.972 102.417 126.972C102.237 126.972 102.07 127.008 101.914 127.08C101.759 127.15 101.623 127.247 101.505 127.37C101.39 127.493 101.299 127.634 101.233 127.793C101.166 127.95 101.133 128.116 101.133 128.29C101.133 128.521 101.187 128.737 101.295 128.938C101.405 129.139 101.554 129.301 101.744 129.424C101.935 129.547 102.152 129.608 102.394 129.608Z" fill="#323236"/>
<path d="M425.999 118.923C431.946 118.923 436.768 115.823 436.768 112C436.768 108.176 431.946 105.077 425.999 105.077C420.051 105.077 415.229 108.176 415.229 112C415.229 115.823 420.051 118.923 425.999 118.923Z" fill="white" stroke="#B6B6BC" stroke-width="1.15385"/>
<path d="M445.23 112H406.769C405.494 112 404.461 113.033 404.461 114.308V138.923C404.461 140.198 405.494 141.231 406.769 141.231H445.23C446.505 141.231 447.538 140.198 447.538 138.923V114.308C447.538 113.033 446.505 112 445.23 112Z" fill="white" stroke="#323236" stroke-width="1.15385"/>
<path d="M421.491 130.769V124.951H423.525C423.93 124.951 424.264 125.021 424.528 125.161C424.791 125.3 424.987 125.486 425.116 125.721C425.244 125.954 425.309 126.212 425.309 126.497C425.309 126.747 425.264 126.953 425.175 127.116C425.088 127.279 424.973 127.408 424.829 127.502C424.687 127.597 424.532 127.667 424.366 127.712V127.769C424.544 127.781 424.723 127.843 424.903 127.957C425.083 128.07 425.233 128.233 425.354 128.445C425.476 128.658 425.536 128.917 425.536 129.224C425.536 129.515 425.47 129.778 425.337 130.011C425.205 130.244 424.995 130.428 424.709 130.565C424.423 130.701 424.051 130.769 423.593 130.769H421.491ZM422.195 130.144H423.593C424.053 130.144 424.38 130.055 424.573 129.877C424.768 129.697 424.866 129.48 424.866 129.224C424.866 129.027 424.815 128.845 424.715 128.678C424.615 128.51 424.472 128.375 424.286 128.275C424.101 128.173 423.881 128.122 423.627 128.122H422.195V130.144ZM422.195 127.508H423.502C423.714 127.508 423.905 127.466 424.076 127.383C424.248 127.3 424.385 127.182 424.485 127.031C424.587 126.879 424.638 126.701 424.638 126.497C424.638 126.241 424.549 126.024 424.371 125.846C424.193 125.666 423.911 125.576 423.525 125.576H422.195V127.508ZM428.523 130.849C428.285 130.845 428.046 130.8 427.807 130.712C427.569 130.625 427.351 130.479 427.154 130.272C426.957 130.064 426.799 129.783 426.68 129.428C426.56 129.072 426.501 128.625 426.501 128.087C426.501 127.572 426.549 127.116 426.646 126.718C426.742 126.319 426.882 125.982 427.066 125.71C427.25 125.435 427.471 125.227 427.731 125.085C427.992 124.943 428.287 124.872 428.614 124.872C428.94 124.872 429.23 124.937 429.484 125.068C429.739 125.196 429.948 125.376 430.109 125.607C430.27 125.838 430.374 126.105 430.421 126.406H429.728C429.664 126.144 429.539 125.927 429.353 125.755C429.167 125.583 428.921 125.497 428.614 125.497C428.164 125.497 427.808 125.693 427.549 126.085C427.291 126.477 427.162 127.027 427.16 127.735H427.205C427.311 127.574 427.437 127.437 427.583 127.323C427.731 127.208 427.894 127.119 428.072 127.056C428.25 126.994 428.438 126.962 428.637 126.962C428.97 126.962 429.275 127.046 429.552 127.212C429.828 127.377 430.05 127.605 430.217 127.897C430.383 128.187 430.467 128.519 430.467 128.894C430.467 129.254 430.386 129.584 430.225 129.883C430.064 130.18 429.838 130.417 429.546 130.593C429.256 130.767 428.915 130.853 428.523 130.849ZM428.523 130.224C428.762 130.224 428.976 130.164 429.165 130.045C429.357 129.926 429.507 129.765 429.617 129.565C429.729 129.364 429.785 129.14 429.785 128.894C429.785 128.654 429.731 128.435 429.623 128.238C429.517 128.039 429.37 127.881 429.182 127.764C428.997 127.646 428.785 127.587 428.546 127.587C428.366 127.587 428.199 127.623 428.043 127.695C427.888 127.765 427.752 127.862 427.634 127.985C427.519 128.108 427.428 128.249 427.361 128.408C427.295 128.566 427.262 128.731 427.262 128.906C427.262 129.137 427.316 129.353 427.424 129.553C427.534 129.754 427.683 129.916 427.873 130.039C428.064 130.162 428.281 130.224 428.523 130.224Z" fill="#323236"/>
<path d="M173.538 118.692C179.485 118.692 184.307 115.593 184.307 111.769C184.307 107.946 179.485 104.846 173.538 104.846C167.59 104.846 162.769 107.946 162.769 111.769C162.769 115.593 167.59 118.692 173.538 118.692Z" fill="white" stroke="#B6B6BC" stroke-width="1.15385"/>
<path d="M192.769 111.769H154.308C153.033 111.769 152 112.802 152 114.077V138.692C152 139.967 153.033 141 154.308 141H192.769C194.044 141 195.077 139.967 195.077 138.692V114.077C195.077 112.802 194.044 111.769 192.769 111.769Z" fill="white" stroke="#323236" stroke-width="1.15385"/>
<path d="M168.878 130.539H168.139L170.275 124.72H171.003L173.139 130.539H172.4L170.662 125.641H170.616L168.878 130.539ZM169.15 128.266H172.128V128.891H169.15V128.266ZM174.125 130.539L176.727 125.391V125.345H173.727V124.72H177.454V125.379L174.864 130.539H174.125Z" fill="#323236"/>
<path d="M499.768 119.308C505.716 119.308 510.537 116.208 510.537 112.385C510.537 108.561 505.716 105.461 499.768 105.461C493.821 105.461 488.999 108.561 488.999 112.385C488.999 116.208 493.821 119.308 499.768 119.308Z" fill="white" stroke="#B6B6BC" stroke-width="1.15385"/>
<path d="M519 112.385H480.538C479.264 112.385 478.23 113.418 478.23 114.692V139.308C478.23 140.582 479.264 141.615 480.538 141.615H519C520.274 141.615 521.307 140.582 521.307 139.308V114.692C521.307 113.418 520.274 112.385 519 112.385Z" fill="white" stroke="#323236" stroke-width="1.15385"/>
<path d="M494.971 131.154V125.336H497.005C497.411 125.336 497.745 125.406 498.008 125.546C498.271 125.684 498.467 125.871 498.596 126.106C498.725 126.338 498.789 126.597 498.789 126.881C498.789 127.131 498.745 127.338 498.656 127.5C498.569 127.663 498.453 127.792 498.309 127.887C498.167 127.981 498.013 128.052 497.846 128.097V128.154C498.024 128.165 498.203 128.228 498.383 128.341C498.563 128.455 498.714 128.618 498.835 128.83C498.956 129.042 499.017 129.302 499.017 129.608C499.017 129.9 498.95 130.162 498.818 130.395C498.685 130.628 498.476 130.813 498.19 130.949C497.904 131.086 497.532 131.154 497.073 131.154H494.971ZM495.676 130.529H497.073C497.534 130.529 497.86 130.44 498.054 130.262C498.249 130.082 498.346 129.864 498.346 129.608C498.346 129.411 498.296 129.23 498.196 129.063C498.095 128.894 497.952 128.76 497.767 128.659C497.581 128.557 497.361 128.506 497.108 128.506H495.676V130.529ZM495.676 127.892H496.983C497.195 127.892 497.386 127.851 497.556 127.767C497.729 127.684 497.865 127.567 497.965 127.415C498.068 127.264 498.119 127.086 498.119 126.881C498.119 126.625 498.03 126.409 497.852 126.231C497.674 126.051 497.392 125.961 497.005 125.961H495.676V127.892ZM500.254 131.154L502.856 126.006V125.961H499.856V125.336H503.583V125.995L500.992 131.154H500.254Z" fill="#323236"/>
<path d="M230.768 118.308C236.716 118.308 241.537 115.208 241.537 111.385C241.537 107.561 236.716 104.461 230.768 104.461C224.821 104.461 219.999 107.561 219.999 111.385C219.999 115.208 224.821 118.308 230.768 118.308Z" fill="white" stroke="#B6B6BC" stroke-width="1.15385"/>
<path d="M250 111.385H211.538C210.264 111.385 209.23 112.418 209.23 113.692V138.308C209.23 139.582 210.264 140.615 211.538 140.615H250C251.274 140.615 252.307 139.582 252.307 138.308V113.692C252.307 112.418 251.274 111.385 250 111.385Z" fill="white" stroke="#323236" stroke-width="1.15385"/>
<path d="M226.429 130.154H225.69L227.826 124.336H228.554L230.69 130.154H229.951L228.213 125.256H228.167L226.429 130.154ZM226.701 127.881H229.679V128.506H226.701V127.881ZM233.358 130.233C232.967 130.233 232.623 130.164 232.323 130.026C232.026 129.886 231.794 129.694 231.627 129.449C231.461 129.203 231.378 128.923 231.38 128.608C231.378 128.362 231.427 128.135 231.525 127.927C231.624 127.716 231.758 127.541 231.929 127.401C232.101 127.259 232.293 127.169 232.505 127.131V127.097C232.227 127.025 232.005 126.869 231.84 126.628C231.676 126.386 231.594 126.11 231.596 125.802C231.594 125.506 231.669 125.242 231.821 125.009C231.972 124.776 232.18 124.592 232.446 124.458C232.713 124.323 233.017 124.256 233.358 124.256C233.695 124.256 233.996 124.323 234.261 124.458C234.526 124.592 234.734 124.776 234.886 125.009C235.039 125.242 235.117 125.506 235.119 125.802C235.117 126.11 235.033 126.386 234.866 126.628C234.701 126.869 234.483 127.025 234.21 127.097V127.131C234.42 127.169 234.609 127.259 234.778 127.401C234.947 127.541 235.081 127.716 235.181 127.927C235.282 128.135 235.333 128.362 235.335 128.608C235.333 128.923 235.248 129.203 235.079 129.449C234.912 129.694 234.68 129.886 234.383 130.026C234.088 130.164 233.746 130.233 233.358 130.233ZM233.358 129.608C233.621 129.608 233.848 129.566 234.039 129.481C234.231 129.395 234.378 129.275 234.483 129.12C234.587 128.964 234.64 128.783 234.642 128.574C234.64 128.355 234.583 128.16 234.471 127.992C234.359 127.823 234.207 127.691 234.014 127.594C233.822 127.498 233.604 127.449 233.358 127.449C233.109 127.449 232.888 127.498 232.693 127.594C232.5 127.691 232.347 127.823 232.235 127.992C232.126 128.16 232.072 128.355 232.073 128.574C232.072 128.783 232.122 128.964 232.224 129.12C232.328 129.275 232.477 129.395 232.67 129.481C232.863 129.566 233.092 129.608 233.358 129.608ZM233.358 126.847C233.566 126.847 233.751 126.805 233.911 126.722C234.074 126.639 234.202 126.522 234.295 126.373C234.388 126.223 234.435 126.048 234.437 125.847C234.435 125.65 234.389 125.479 234.298 125.333C234.207 125.185 234.081 125.071 233.92 124.992C233.759 124.91 233.572 124.87 233.358 124.87C233.14 124.87 232.949 124.91 232.786 124.992C232.624 125.071 232.498 125.185 232.409 125.333C232.32 125.479 232.276 125.65 232.278 125.847C232.276 126.048 232.321 126.223 232.411 126.373C232.504 126.522 232.632 126.639 232.795 126.722C232.958 126.805 233.145 126.847 233.358 126.847Z" fill="#323236"/>
<path d="M556.999 118.923C562.946 118.923 567.768 115.823 567.768 112C567.768 108.176 562.946 105.077 556.999 105.077C551.051 105.077 546.229 108.176 546.229 112C546.229 115.823 551.051 118.923 556.999 118.923Z" fill="white" stroke="#B6B6BC" stroke-width="1.15385"/>
<path d="M576.23 112H537.769C536.494 112 535.461 113.033 535.461 114.308V138.923C535.461 140.198 536.494 141.231 537.769 141.231H576.23C577.505 141.231 578.538 140.198 578.538 138.923V114.308C578.538 113.033 577.505 112 576.23 112Z" fill="white" stroke="#323236" stroke-width="1.15385"/>
<path d="M552.522 130.769V124.951H554.556C554.961 124.951 555.296 125.021 555.559 125.161C555.822 125.3 556.018 125.486 556.147 125.721C556.276 125.954 556.34 126.212 556.34 126.497C556.34 126.747 556.296 126.953 556.207 127.116C556.119 127.279 556.004 127.408 555.86 127.502C555.718 127.597 555.564 127.667 555.397 127.712V127.769C555.575 127.781 555.754 127.843 555.934 127.957C556.114 128.07 556.264 128.233 556.386 128.445C556.507 128.658 556.567 128.917 556.567 129.224C556.567 129.515 556.501 129.778 556.369 130.011C556.236 130.244 556.027 130.428 555.741 130.565C555.455 130.701 555.083 130.769 554.624 130.769H552.522ZM553.226 130.144H554.624C555.084 130.144 555.411 130.055 555.604 129.877C555.799 129.697 555.897 129.48 555.897 129.224C555.897 129.027 555.847 128.845 555.746 128.678C555.646 128.51 555.503 128.375 555.317 128.275C555.132 128.173 554.912 128.122 554.658 128.122H553.226V130.144ZM553.226 127.508H554.533C554.745 127.508 554.937 127.466 555.107 127.383C555.28 127.3 555.416 127.182 555.516 127.031C555.619 126.879 555.67 126.701 555.67 126.497C555.67 126.241 555.581 126.024 555.403 125.846C555.225 125.666 554.942 125.576 554.556 125.576H553.226V127.508ZM559.486 130.849C559.096 130.849 558.752 130.78 558.452 130.641C558.155 130.501 557.923 130.309 557.756 130.065C557.59 129.819 557.507 129.538 557.509 129.224C557.507 128.978 557.556 128.75 557.654 128.542C557.753 128.332 557.887 128.157 558.057 128.016C558.23 127.874 558.422 127.784 558.634 127.747V127.712C558.356 127.64 558.134 127.484 557.969 127.244C557.805 127.001 557.723 126.726 557.725 126.417C557.723 126.122 557.798 125.857 557.949 125.624C558.101 125.391 558.309 125.208 558.574 125.073C558.842 124.939 559.146 124.872 559.486 124.872C559.824 124.872 560.125 124.939 560.39 125.073C560.655 125.208 560.863 125.391 561.015 125.624C561.168 125.857 561.246 126.122 561.248 126.417C561.246 126.726 561.162 127.001 560.995 127.244C560.83 127.484 560.611 127.64 560.339 127.712V127.747C560.549 127.784 560.738 127.874 560.907 128.016C561.075 128.157 561.21 128.332 561.31 128.542C561.411 128.75 561.462 128.978 561.464 129.224C561.462 129.538 561.377 129.819 561.208 130.065C561.041 130.309 560.809 130.501 560.512 130.641C560.217 130.78 559.875 130.849 559.486 130.849ZM559.486 130.224C559.75 130.224 559.977 130.181 560.168 130.096C560.36 130.011 560.507 129.89 560.611 129.735C560.716 129.58 560.769 129.398 560.771 129.19C560.769 128.97 560.712 128.776 560.6 128.607C560.488 128.439 560.336 128.306 560.143 128.21C559.951 128.113 559.733 128.065 559.486 128.065C559.238 128.065 559.017 128.113 558.822 128.21C558.628 128.306 558.476 128.439 558.364 128.607C558.254 128.776 558.2 128.97 558.202 129.19C558.2 129.398 558.251 129.58 558.353 129.735C558.457 129.89 558.606 130.011 558.799 130.096C558.992 130.181 559.221 130.224 559.486 130.224ZM559.486 127.462C559.695 127.462 559.879 127.421 560.04 127.337C560.203 127.254 560.331 127.138 560.424 126.988C560.517 126.838 560.564 126.663 560.566 126.462C560.564 126.265 560.518 126.094 560.427 125.948C560.336 125.801 560.21 125.687 560.049 125.607C559.888 125.526 559.7 125.485 559.486 125.485C559.269 125.485 559.078 125.526 558.915 125.607C558.753 125.687 558.627 125.801 558.538 125.948C558.449 126.094 558.405 126.265 558.407 126.462C558.405 126.663 558.449 126.838 558.54 126.988C558.633 127.138 558.761 127.254 558.924 127.337C559.087 127.421 559.274 127.462 559.486 127.462Z" fill="#323236"/>
<path d="M66.3072 267.692H20.1534C18.8789 267.692 17.8457 268.726 17.8457 270V285.385C17.8457 286.659 18.8789 287.692 20.1534 287.692H66.3072C67.5817 287.692 68.6149 286.659 68.6149 285.385V270C68.6149 268.726 67.5817 267.692 66.3072 267.692Z" fill="white" stroke="#323236" stroke-width="1.15385"/>
<path d="M28.9092 280.846V275.811H29.5189V278.309H29.5779L31.8397 275.811H32.6363L30.522 278.083L32.6363 280.846H31.8987L30.1483 278.506L29.5189 279.214V280.846H28.9092ZM34.0351 275.811V280.846H33.4254V275.811H34.0351ZM34.9823 276.352V275.811H38.7585V276.352H37.1752V280.846H36.5655V276.352H34.9823ZM43.5415 277.385H42.9318C42.8957 277.209 42.8326 277.055 42.7425 276.922C42.6539 276.79 42.5458 276.678 42.4179 276.588C42.2917 276.496 42.1516 276.427 41.9975 276.382C41.8435 276.336 41.6828 276.313 41.5157 276.313C41.2108 276.313 40.9347 276.39 40.6872 276.544C40.4413 276.698 40.2455 276.925 40.0996 277.225C39.9554 277.525 39.8832 277.893 39.8832 278.329C39.8832 278.765 39.9554 279.133 40.0996 279.433C40.2455 279.733 40.4413 279.959 40.6872 280.114C40.9347 280.268 41.2108 280.345 41.5157 280.345C41.6828 280.345 41.8435 280.322 41.9975 280.276C42.1516 280.23 42.2917 280.162 42.4179 280.072C42.5458 279.98 42.6539 279.868 42.7425 279.735C42.8326 279.601 42.8957 279.446 42.9318 279.273H43.5415C43.4956 279.53 43.412 279.76 43.2907 279.964C43.1694 280.167 43.0186 280.34 42.8383 280.482C42.658 280.623 42.4556 280.731 42.2311 280.804C42.0082 280.878 41.7697 280.915 41.5157 280.915C41.0863 280.915 40.7044 280.81 40.37 280.6C40.0357 280.391 39.7726 280.092 39.5808 279.705C39.3891 279.319 39.2932 278.86 39.2932 278.329C39.2932 277.798 39.3891 277.339 39.5808 276.952C39.7726 276.565 40.0357 276.267 40.37 276.057C40.7044 275.847 41.0863 275.742 41.5157 275.742C41.7697 275.742 42.0082 275.779 42.2311 275.853C42.4556 275.927 42.658 276.035 42.8383 276.178C43.0186 276.318 43.1694 276.491 43.2907 276.694C43.412 276.895 43.4956 277.126 43.5415 277.385ZM44.5267 280.846V275.811H45.1364V278.053H47.8211V275.811H48.4308V280.846H47.8211V278.594H45.1364V280.846H44.5267ZM49.6514 280.846V275.811H52.6901V276.352H50.2611V278.053H52.5327V278.594H50.2611V280.305H52.7294V280.846H49.6514ZM57.7816 275.811V280.846H57.1915L54.4479 276.893H54.3987V280.846H53.789V275.811H54.379L57.1325 279.774H57.1817V275.811H57.7816Z" fill="#323236"/>
<path d="M580 267.692H538.462C537.187 267.692 536.154 268.726 536.154 270V285.385C536.154 286.659 537.187 287.692 538.462 287.692H580C581.275 287.692 582.308 286.659 582.308 285.385V270C582.308 268.726 581.275 267.692 580 267.692Z" fill="white" stroke="#323236" stroke-width="1.15385"/>
<path d="M545.426 280.846V275.811H546.036V280.305H548.376V280.846H545.426ZM553.372 278.329C553.372 278.86 553.276 279.319 553.085 279.705C552.893 280.092 552.63 280.391 552.295 280.6C551.961 280.81 551.579 280.915 551.15 280.915C550.72 280.915 550.338 280.81 550.004 280.6C549.67 280.391 549.407 280.092 549.215 279.705C549.023 279.319 548.927 278.86 548.927 278.329C548.927 277.798 549.023 277.339 549.215 276.952C549.407 276.565 549.67 276.267 550.004 276.057C550.338 275.847 550.72 275.742 551.15 275.742C551.579 275.742 551.961 275.847 552.295 276.057C552.63 276.267 552.893 276.565 553.085 276.952C553.276 277.339 553.372 277.798 553.372 278.329ZM552.782 278.329C552.782 277.893 552.709 277.525 552.563 277.225C552.419 276.925 552.223 276.698 551.976 276.544C551.73 276.39 551.455 276.313 551.15 276.313C550.845 276.313 550.569 276.39 550.321 276.544C550.075 276.698 549.88 276.925 549.734 277.225C549.589 277.525 549.517 277.893 549.517 278.329C549.517 278.765 549.589 279.133 549.734 279.433C549.88 279.733 550.075 279.959 550.321 280.114C550.569 280.268 550.845 280.345 551.15 280.345C551.455 280.345 551.73 280.268 551.976 280.114C552.223 279.959 552.419 279.733 552.563 279.433C552.709 279.133 552.782 278.765 552.782 278.329ZM557.702 275.811H558.311V279.145C558.311 279.489 558.23 279.796 558.068 280.067C557.907 280.336 557.68 280.548 557.387 280.704C557.094 280.858 556.749 280.935 556.354 280.935C555.959 280.935 555.615 280.858 555.322 280.704C555.028 280.548 554.801 280.336 554.638 280.067C554.478 279.796 554.397 279.489 554.397 279.145V275.811H555.007V279.096C555.007 279.342 555.061 279.56 555.169 279.752C555.278 279.942 555.432 280.092 555.632 280.202C555.833 280.31 556.074 280.364 556.354 280.364C556.635 280.364 556.876 280.31 557.077 280.202C557.279 280.092 557.433 279.942 557.539 279.752C557.648 279.56 557.702 279.342 557.702 279.096V275.811ZM563.521 275.811V280.846H562.931L560.188 276.893H560.139V280.846H559.529V275.811H560.119L562.872 279.774H562.922V275.811H563.521ZM568.183 277.385C568.129 277.219 568.058 277.071 567.969 276.94C567.883 276.807 567.779 276.694 567.657 276.6C567.538 276.507 567.402 276.436 567.249 276.387C567.097 276.337 566.93 276.313 566.748 276.313C566.449 276.313 566.178 276.39 565.934 276.544C565.69 276.698 565.495 276.925 565.351 277.225C565.207 277.525 565.135 277.893 565.135 278.329C565.135 278.765 565.208 279.133 565.354 279.433C565.499 279.733 565.697 279.959 565.946 280.114C566.195 280.268 566.476 280.345 566.787 280.345C567.075 280.345 567.329 280.283 567.549 280.16C567.77 280.036 567.942 279.86 568.065 279.634C568.19 279.406 568.252 279.138 568.252 278.83L568.439 278.87H566.925V278.329H568.842V278.87C568.842 279.284 568.754 279.645 568.577 279.951C568.401 280.258 568.159 280.495 567.849 280.664C567.541 280.831 567.187 280.915 566.787 280.915C566.341 280.915 565.949 280.81 565.612 280.6C565.276 280.391 565.014 280.092 564.825 279.705C564.638 279.319 564.545 278.86 564.545 278.329C564.545 277.93 564.598 277.572 564.705 277.254C564.813 276.935 564.965 276.663 565.162 276.438C565.359 276.214 565.591 276.042 565.86 275.922C566.129 275.802 566.425 275.742 566.748 275.742C567.013 275.742 567.261 275.783 567.49 275.863C567.721 275.942 567.927 276.054 568.107 276.2C568.289 276.344 568.441 276.517 568.562 276.718C568.683 276.918 568.767 277.14 568.813 277.385H568.183ZM569.886 280.846V275.811H572.925V276.352H570.496V278.053H572.768V278.594H570.496V280.305H572.964V280.846H569.886Z" fill="#323236"/>
<path d="M120 175.385V222.308" stroke="#323236" stroke-width="1.15385"/>
<path d="M480.77 176.154V223.077" stroke="#323236" stroke-width="1.15385"/>
<path d="M8.46191 175.385H120.77" stroke="#323236" stroke-width="1.15385"/>
<path d="M206.538 218.692C212.485 218.692 217.307 215.593 217.307 211.769C217.307 207.946 212.485 204.846 206.538 204.846C200.59 204.846 195.769 207.946 195.769 211.769C195.769 215.593 200.59 218.692 206.538 218.692Z" fill="white" stroke="#B6B6BC" stroke-width="1.15385"/>
<path d="M225.769 211.769H187.308C186.033 211.769 185 212.802 185 214.077V238.692C185 239.967 186.033 241 187.308 241H225.769C227.044 241 228.077 239.967 228.077 238.692V214.077C228.077 212.802 227.044 211.769 225.769 211.769Z" fill="white" stroke="#323236" stroke-width="1.15385"/>
<path d="M203.835 228.72H204.608L205.255 229.573L205.426 229.8L206.392 231.084H205.619L204.983 230.232L204.823 230.016L203.835 228.72ZM206.63 227.629C206.63 228.243 206.519 228.773 206.298 229.22C206.076 229.667 205.772 230.012 205.386 230.254C205 230.497 204.558 230.618 204.062 230.618C203.566 230.618 203.125 230.497 202.738 230.254C202.352 230.012 202.048 229.667 201.826 229.22C201.605 228.773 201.494 228.243 201.494 227.629C201.494 227.016 201.605 226.486 201.826 226.039C202.048 225.592 202.352 225.247 202.738 225.004C203.125 224.762 203.566 224.641 204.062 224.641C204.558 224.641 205 224.762 205.386 225.004C205.772 225.247 206.076 225.592 206.298 226.039C206.519 226.486 206.63 227.016 206.63 227.629ZM205.948 227.629C205.948 227.126 205.864 226.701 205.696 226.354C205.529 226.007 205.303 225.745 205.017 225.567C204.733 225.389 204.414 225.3 204.062 225.3C203.71 225.3 203.391 225.389 203.105 225.567C202.821 225.745 202.594 226.007 202.426 226.354C202.259 226.701 202.176 227.126 202.176 227.629C202.176 228.133 202.259 228.558 202.426 228.905C202.594 229.252 202.821 229.514 203.105 229.692C203.391 229.87 203.71 229.959 204.062 229.959C204.414 229.959 204.733 229.87 205.017 229.692C205.303 229.514 205.529 229.252 205.696 228.905C205.864 228.558 205.948 228.133 205.948 227.629ZM209.758 224.72V230.539H209.054V225.459H209.019L207.599 226.402V225.686L209.054 224.72H209.758Z" fill="#323236"/>
<path d="M263.768 219.308C269.716 219.308 274.537 216.208 274.537 212.385C274.537 208.561 269.716 205.461 263.768 205.461C257.821 205.461 252.999 208.561 252.999 212.385C252.999 216.208 257.821 219.308 263.768 219.308Z" fill="white" stroke="#B6B6BC" stroke-width="1.15385"/>
<path d="M283 212.385H244.538C243.264 212.385 242.23 213.418 242.23 214.692V239.308C242.23 240.582 243.264 241.615 244.538 241.615H283C284.274 241.615 285.307 240.582 285.307 239.308V214.692C285.307 213.418 284.274 212.385 283 212.385Z" fill="white" stroke="#323236" stroke-width="1.15385"/>
<path d="M261.003 229.336H261.775L262.423 230.188L262.594 230.415L263.56 231.699H262.787L262.15 230.847L261.991 230.631L261.003 229.336ZM263.798 228.245C263.798 228.858 263.687 229.389 263.466 229.836C263.244 230.283 262.94 230.627 262.554 230.87C262.168 231.112 261.726 231.233 261.23 231.233C260.734 231.233 260.293 231.112 259.906 230.87C259.52 230.627 259.216 230.283 258.994 229.836C258.773 229.389 258.662 228.858 258.662 228.245C258.662 227.631 258.773 227.101 258.994 226.654C259.216 226.207 259.52 225.862 259.906 225.62C260.293 225.377 260.734 225.256 261.23 225.256C261.726 225.256 262.168 225.377 262.554 225.62C262.94 225.862 263.244 226.207 263.466 226.654C263.687 227.101 263.798 227.631 263.798 228.245ZM263.116 228.245C263.116 227.741 263.032 227.316 262.864 226.969C262.697 226.623 262.471 226.36 262.185 226.182C261.9 226.004 261.582 225.915 261.23 225.915C260.878 225.915 260.559 226.004 260.273 226.182C259.989 226.36 259.762 226.623 259.594 226.969C259.427 227.316 259.344 227.741 259.344 228.245C259.344 228.749 259.427 229.174 259.594 229.52C259.762 229.867 259.989 230.129 260.273 230.307C260.559 230.485 260.878 230.574 261.23 230.574C261.582 230.574 261.9 230.485 262.185 230.307C262.471 230.129 262.697 229.867 262.864 229.52C263.032 229.174 263.116 228.749 263.116 228.245ZM264.881 231.154V230.642L266.801 228.54C267.026 228.294 267.212 228.08 267.358 227.898C267.504 227.714 267.612 227.542 267.682 227.381C267.754 227.218 267.79 227.048 267.79 226.87C267.79 226.665 267.74 226.488 267.642 226.338C267.545 226.189 267.413 226.073 267.244 225.992C267.076 225.91 266.886 225.87 266.676 225.87C266.453 225.87 266.257 225.916 266.091 226.009C265.926 226.1 265.798 226.228 265.707 226.392C265.618 226.557 265.574 226.75 265.574 226.972H264.903C264.903 226.631 264.982 226.332 265.139 226.074C265.296 225.817 265.51 225.616 265.781 225.472C266.054 225.328 266.36 225.256 266.699 225.256C267.04 225.256 267.342 225.328 267.605 225.472C267.868 225.616 268.075 225.81 268.224 226.054C268.374 226.299 268.449 226.57 268.449 226.87C268.449 227.084 268.41 227.293 268.332 227.498C268.257 227.7 268.124 227.927 267.935 228.177C267.747 228.425 267.487 228.728 267.153 229.086L265.847 230.483V230.529H268.551V231.154H264.881Z" fill="#323236"/>
<path d="M337.768 219.308C343.716 219.308 348.537 216.208 348.537 212.385C348.537 208.561 343.716 205.461 337.768 205.461C331.821 205.461 326.999 208.561 326.999 212.385C326.999 216.208 331.821 219.308 337.768 219.308Z" fill="white" stroke="#B6B6BC" stroke-width="1.15385"/>
<path d="M357 212.385H318.538C317.264 212.385 316.23 213.418 316.23 214.692V239.308C316.23 240.582 317.264 241.615 318.538 241.615H357C358.274 241.615 359.307 240.582 359.307 239.308V214.692C359.307 213.418 358.274 212.385 357 212.385Z" fill="white" stroke="#323236" stroke-width="1.15385"/>
<path d="M334.378 229.336H335.15L335.798 230.188L335.969 230.415L336.935 231.699H336.162L335.525 230.847L335.366 230.631L334.378 229.336ZM337.173 228.245C337.173 228.858 337.062 229.389 336.841 229.836C336.619 230.283 336.315 230.627 335.929 230.87C335.543 231.112 335.101 231.233 334.605 231.233C334.109 231.233 333.668 231.112 333.281 230.87C332.895 230.627 332.591 230.283 332.369 229.836C332.148 229.389 332.037 228.858 332.037 228.245C332.037 227.631 332.148 227.101 332.369 226.654C332.591 226.207 332.895 225.862 333.281 225.62C333.668 225.377 334.109 225.256 334.605 225.256C335.101 225.256 335.543 225.377 335.929 225.62C336.315 225.862 336.619 226.207 336.841 226.654C337.062 227.101 337.173 227.631 337.173 228.245ZM336.491 228.245C336.491 227.741 336.407 227.316 336.239 226.969C336.072 226.623 335.846 226.36 335.56 226.182C335.275 226.004 334.957 225.915 334.605 225.915C334.253 225.915 333.934 226.004 333.648 226.182C333.364 226.36 333.137 226.623 332.969 226.969C332.802 227.316 332.719 227.741 332.719 228.245C332.719 228.749 332.802 229.174 332.969 229.52C333.137 229.867 333.364 230.129 333.648 230.307C333.934 230.485 334.253 230.574 334.605 230.574C334.957 230.574 335.275 230.485 335.56 230.307C335.846 230.129 336.072 229.867 336.239 229.52C336.407 229.174 336.491 228.749 336.491 228.245ZM340.222 231.233C339.847 231.233 339.512 231.169 339.219 231.04C338.927 230.911 338.695 230.732 338.523 230.503C338.352 230.272 338.259 230.004 338.244 229.699H338.96C338.975 229.887 339.04 230.049 339.153 230.185C339.267 230.32 339.416 230.424 339.599 230.498C339.783 230.571 339.987 230.608 340.21 230.608C340.46 230.608 340.682 230.565 340.875 230.478C341.068 230.391 341.22 230.269 341.329 230.114C341.439 229.959 341.494 229.779 341.494 229.574C341.494 229.36 341.441 229.172 341.335 229.009C341.229 228.844 341.074 228.715 340.869 228.623C340.665 228.53 340.415 228.483 340.119 228.483H339.653V227.858H340.119C340.35 227.858 340.553 227.817 340.727 227.733C340.903 227.65 341.041 227.533 341.139 227.381C341.239 227.23 341.29 227.052 341.29 226.847C341.29 226.65 341.246 226.479 341.159 226.333C341.072 226.187 340.949 226.073 340.79 225.992C340.632 225.91 340.447 225.87 340.233 225.87C340.032 225.87 339.843 225.907 339.665 225.981C339.489 226.052 339.345 226.158 339.233 226.296C339.121 226.432 339.061 226.597 339.051 226.79H338.369C338.381 226.485 338.472 226.218 338.645 225.989C338.817 225.758 339.043 225.578 339.321 225.449C339.601 225.32 339.909 225.256 340.244 225.256C340.604 225.256 340.913 225.329 341.17 225.475C341.428 225.619 341.626 225.809 341.764 226.046C341.902 226.283 341.972 226.538 341.972 226.813C341.972 227.141 341.885 227.42 341.713 227.651C341.543 227.882 341.311 228.042 341.017 228.131V228.177C341.384 228.237 341.671 228.393 341.878 228.645C342.084 228.895 342.187 229.205 342.187 229.574C342.187 229.891 342.101 230.175 341.929 230.427C341.758 230.677 341.525 230.874 341.23 231.017C340.935 231.161 340.598 231.233 340.222 231.233Z" fill="#323236"/>
<path d="M394.768 219.308C400.716 219.308 405.537 216.208 405.537 212.385C405.537 208.561 400.716 205.461 394.768 205.461C388.821 205.461 383.999 208.561 383.999 212.385C383.999 216.208 388.821 219.308 394.768 219.308Z" fill="white" stroke="#B6B6BC" stroke-width="1.15385"/>
<path d="M414 212.385H375.538C374.264 212.385 373.23 213.418 373.23 214.692V239.308C373.23 240.582 374.264 241.615 375.538 241.615H414C415.274 241.615 416.307 240.582 416.307 239.308V214.692C416.307 213.418 415.274 212.385 414 212.385Z" fill="white" stroke="#323236" stroke-width="1.15385"/>
<path d="M391.358 229.336H392.131L392.779 230.188L392.949 230.415L393.915 231.699H393.142L392.506 230.847L392.347 230.631L391.358 229.336ZM394.154 228.245C394.154 228.858 394.043 229.389 393.821 229.836C393.6 230.283 393.296 230.627 392.909 230.87C392.523 231.112 392.082 231.233 391.585 231.233C391.089 231.233 390.648 231.112 390.262 230.87C389.875 230.627 389.571 230.283 389.35 229.836C389.128 229.389 389.017 228.858 389.017 228.245C389.017 227.631 389.128 227.101 389.35 226.654C389.571 226.207 389.875 225.862 390.262 225.62C390.648 225.377 391.089 225.256 391.585 225.256C392.082 225.256 392.523 225.377 392.909 225.62C393.296 225.862 393.6 226.207 393.821 226.654C394.043 227.101 394.154 227.631 394.154 228.245ZM393.472 228.245C393.472 227.741 393.388 227.316 393.219 226.969C393.052 226.623 392.826 226.36 392.54 226.182C392.256 226.004 391.938 225.915 391.585 225.915C391.233 225.915 390.914 226.004 390.628 226.182C390.344 226.36 390.118 226.623 389.949 226.969C389.782 227.316 389.699 227.741 389.699 228.245C389.699 228.749 389.782 229.174 389.949 229.52C390.118 229.867 390.344 230.129 390.628 230.307C390.914 230.485 391.233 230.574 391.585 230.574C391.938 230.574 392.256 230.485 392.54 230.307C392.826 230.129 393.052 229.867 393.219 229.52C393.388 229.174 393.472 228.749 393.472 228.245ZM395.1 229.961V229.381L397.657 225.336H398.077V226.233H397.793L395.861 229.29V229.336H399.304V229.961H395.1ZM397.838 231.154V229.784V229.515V225.336H398.509V231.154H397.838Z" fill="#323236"/>
<path d="M206.768 264.308C212.716 264.308 217.537 261.208 217.537 257.385C217.537 253.561 212.716 250.461 206.768 250.461C200.821 250.461 195.999 253.561 195.999 257.385C195.999 261.208 200.821 264.308 206.768 264.308Z" fill="white" stroke="#B6B6BC" stroke-width="1.15385"/>
<path d="M226 257.385H187.538C186.264 257.385 185.23 258.418 185.23 259.692V284.308C185.23 285.582 186.264 286.615 187.538 286.615H226C227.274 286.615 228.307 285.582 228.307 284.308V259.692C228.307 258.418 227.274 257.385 226 257.385Z" fill="white" stroke="#323236" stroke-width="1.15385"/>
<path d="M203.991 274.336H204.764L205.411 275.188L205.582 275.415L206.548 276.699H205.775L205.139 275.847L204.98 275.631L203.991 274.336ZM206.786 273.245C206.786 273.858 206.676 274.389 206.454 274.836C206.233 275.283 205.929 275.627 205.542 275.87C205.156 276.112 204.715 276.233 204.218 276.233C203.722 276.233 203.281 276.112 202.894 275.87C202.508 275.627 202.204 275.283 201.983 274.836C201.761 274.389 201.65 273.858 201.65 273.245C201.65 272.631 201.761 272.101 201.983 271.654C202.204 271.207 202.508 270.862 202.894 270.62C203.281 270.377 203.722 270.256 204.218 270.256C204.715 270.256 205.156 270.377 205.542 270.62C205.929 270.862 206.233 271.207 206.454 271.654C206.676 272.101 206.786 272.631 206.786 273.245ZM206.105 273.245C206.105 272.741 206.02 272.316 205.852 271.969C205.685 271.623 205.459 271.36 205.173 271.182C204.889 271.004 204.571 270.915 204.218 270.915C203.866 270.915 203.547 271.004 203.261 271.182C202.977 271.36 202.751 271.623 202.582 271.969C202.415 272.316 202.332 272.741 202.332 273.245C202.332 273.749 202.415 274.174 202.582 274.52C202.751 274.867 202.977 275.129 203.261 275.307C203.547 275.485 203.866 275.574 204.218 275.574C204.571 275.574 204.889 275.485 205.173 275.307C205.459 275.129 205.685 274.867 205.852 274.52C206.02 274.174 206.105 273.749 206.105 273.245ZM209.687 276.233C209.354 276.233 209.054 276.167 208.786 276.034C208.519 275.902 208.305 275.72 208.144 275.489C207.983 275.258 207.895 274.995 207.88 274.699H208.562C208.589 274.963 208.708 275.18 208.92 275.353C209.134 275.523 209.39 275.608 209.687 275.608C209.926 275.608 210.138 275.552 210.323 275.441C210.511 275.329 210.658 275.176 210.764 274.981C210.872 274.784 210.926 274.561 210.926 274.313C210.926 274.059 210.87 273.833 210.758 273.634C210.648 273.433 210.497 273.275 210.304 273.159C210.11 273.044 209.89 272.985 209.642 272.983C209.464 272.981 209.281 273.009 209.093 273.066C208.906 273.121 208.751 273.192 208.63 273.279L207.971 273.199L208.323 270.336H211.346V270.961H208.914L208.71 272.677H208.744C208.863 272.582 209.013 272.503 209.193 272.441C209.373 272.378 209.56 272.347 209.755 272.347C210.111 272.347 210.429 272.432 210.707 272.603C210.987 272.771 211.207 273.002 211.366 273.296C211.527 273.589 211.608 273.925 211.608 274.302C211.608 274.673 211.524 275.004 211.358 275.296C211.193 275.586 210.965 275.815 210.676 275.983C210.386 276.15 210.056 276.233 209.687 276.233Z" fill="#323236"/>
<path d="M263.999 264.923C269.946 264.923 274.768 261.823 274.768 258C274.768 254.176 269.946 251.077 263.999 251.077C258.051 251.077 253.229 254.176 253.229 258C253.229 261.823 258.051 264.923 263.999 264.923Z" fill="white" stroke="#B6B6BC" stroke-width="1.15385"/>
<path d="M283.23 258H244.769C243.494 258 242.461 259.033 242.461 260.308V284.923C242.461 286.198 243.494 287.231 244.769 287.231H283.23C284.505 287.231 285.538 286.198 285.538 284.923V260.308C285.538 259.033 284.505 258 283.23 258Z" fill="white" stroke="#323236" stroke-width="1.15385"/>
<path d="M260.659 274.951H261.432L262.079 275.803L262.25 276.031L263.216 277.315H262.443L261.807 276.462L261.648 276.247L260.659 274.951ZM263.454 273.86C263.454 274.474 263.344 275.004 263.122 275.451C262.9 275.898 262.597 276.243 262.21 276.485C261.824 276.728 261.382 276.849 260.886 276.849C260.39 276.849 259.949 276.728 259.562 276.485C259.176 276.243 258.872 275.898 258.65 275.451C258.429 275.004 258.318 274.474 258.318 273.86C258.318 273.247 258.429 272.716 258.65 272.269C258.872 271.822 259.176 271.478 259.562 271.235C259.949 270.993 260.39 270.872 260.886 270.872C261.382 270.872 261.824 270.993 262.21 271.235C262.597 271.478 262.9 271.822 263.122 272.269C263.344 272.716 263.454 273.247 263.454 273.86ZM262.773 273.86C262.773 273.356 262.688 272.931 262.52 272.585C262.353 272.238 262.127 271.976 261.841 271.798C261.557 271.62 261.239 271.531 260.886 271.531C260.534 271.531 260.215 271.62 259.929 271.798C259.645 271.976 259.418 272.238 259.25 272.585C259.083 272.931 259 273.356 259 273.86C259 274.364 259.083 274.789 259.25 275.136C259.418 275.482 259.645 275.745 259.929 275.923C260.215 276.101 260.534 276.19 260.886 276.19C261.239 276.19 261.557 276.101 261.841 275.923C262.127 275.745 262.353 275.482 262.52 275.136C262.688 274.789 262.773 274.364 262.773 273.86ZM266.469 276.849C266.23 276.845 265.991 276.8 265.753 276.712C265.514 276.625 265.296 276.479 265.099 276.272C264.902 276.064 264.744 275.783 264.625 275.428C264.506 275.072 264.446 274.625 264.446 274.087C264.446 273.572 264.494 273.116 264.591 272.718C264.687 272.319 264.828 271.982 265.011 271.71C265.195 271.435 265.417 271.227 265.676 271.085C265.937 270.943 266.232 270.872 266.56 270.872C266.885 270.872 267.175 270.937 267.429 271.068C267.685 271.196 267.893 271.376 268.054 271.607C268.215 271.838 268.319 272.105 268.366 272.406H267.673C267.609 272.144 267.484 271.927 267.298 271.755C267.113 271.583 266.866 271.497 266.56 271.497C266.109 271.497 265.754 271.693 265.494 272.085C265.237 272.477 265.107 273.027 265.105 273.735H265.15C265.257 273.574 265.382 273.437 265.528 273.323C265.676 273.208 265.839 273.119 266.017 273.056C266.195 272.994 266.383 272.962 266.582 272.962C266.916 272.962 267.221 273.046 267.497 273.212C267.774 273.377 267.995 273.605 268.162 273.897C268.329 274.187 268.412 274.519 268.412 274.894C268.412 275.254 268.331 275.584 268.17 275.883C268.009 276.18 267.783 276.417 267.491 276.593C267.202 276.767 266.861 276.853 266.469 276.849ZM266.469 276.224C266.707 276.224 266.921 276.164 267.111 276.045C267.302 275.926 267.453 275.765 267.562 275.565C267.674 275.364 267.73 275.14 267.73 274.894C267.73 274.654 267.676 274.435 267.568 274.238C267.462 274.039 267.315 273.881 267.128 273.764C266.942 273.646 266.73 273.587 266.491 273.587C266.311 273.587 266.144 273.623 265.989 273.695C265.833 273.765 265.697 273.862 265.579 273.985C265.464 274.108 265.373 274.249 265.307 274.408C265.24 274.566 265.207 274.731 265.207 274.906C265.207 275.137 265.261 275.353 265.369 275.553C265.479 275.754 265.629 275.916 265.818 276.039C266.009 276.162 266.226 276.224 266.469 276.224Z" fill="#323236"/>
<path d="M337.768 265.308C343.716 265.308 348.537 262.208 348.537 258.385C348.537 254.561 343.716 251.461 337.768 251.461C331.821 251.461 326.999 254.561 326.999 258.385C326.999 262.208 331.821 265.308 337.768 265.308Z" fill="white" stroke="#B6B6BC" stroke-width="1.15385"/>
<path d="M357 258.385H318.538C317.264 258.385 316.23 259.418 316.23 260.692V285.308C316.23 286.582 317.264 287.615 318.538 287.615H357C358.274 287.615 359.307 286.582 359.307 285.308V260.692C359.307 259.418 358.274 258.385 357 258.385Z" fill="white" stroke="#323236" stroke-width="1.15385"/>
<path d="M335.139 275.336H335.912L336.56 276.188L336.73 276.415L337.696 277.699H336.924L336.287 276.847L336.128 276.631L335.139 275.336ZM337.935 274.245C337.935 274.858 337.824 275.389 337.603 275.836C337.381 276.283 337.077 276.627 336.691 276.87C336.304 277.112 335.863 277.233 335.367 277.233C334.871 277.233 334.429 277.112 334.043 276.87C333.657 276.627 333.353 276.283 333.131 275.836C332.909 275.389 332.799 274.858 332.799 274.245C332.799 273.631 332.909 273.101 333.131 272.654C333.353 272.207 333.657 271.862 334.043 271.62C334.429 271.377 334.871 271.256 335.367 271.256C335.863 271.256 336.304 271.377 336.691 271.62C337.077 271.862 337.381 272.207 337.603 272.654C337.824 273.101 337.935 273.631 337.935 274.245ZM337.253 274.245C337.253 273.741 337.169 273.316 337 272.969C336.834 272.623 336.607 272.36 336.321 272.182C336.037 272.004 335.719 271.915 335.367 271.915C335.014 271.915 334.695 272.004 334.409 272.182C334.125 272.36 333.899 272.623 333.73 272.969C333.564 273.316 333.48 273.741 333.48 274.245C333.48 274.749 333.564 275.174 333.73 275.52C333.899 275.867 334.125 276.129 334.409 276.307C334.695 276.485 335.014 276.574 335.367 276.574C335.719 276.574 336.037 276.485 336.321 276.307C336.607 276.129 336.834 275.867 337 275.52C337.169 275.174 337.253 274.749 337.253 274.245ZM339.199 277.154L341.801 272.006V271.961H338.801V271.336H342.529V271.995L339.938 277.154H339.199Z" fill="#323236"/>
<path d="M394.999 264.923C400.946 264.923 405.768 261.823 405.768 258C405.768 254.176 400.946 251.077 394.999 251.077C389.051 251.077 384.229 254.176 384.229 258C384.229 261.823 389.051 264.923 394.999 264.923Z" fill="white" stroke="#B6B6BC" stroke-width="1.15385"/>
<path d="M414.23 258H375.769C374.494 258 373.461 259.033 373.461 260.308V284.923C373.461 286.198 374.494 287.231 375.769 287.231H414.23C415.505 287.231 416.538 286.198 416.538 284.923V260.308C416.538 259.033 415.505 258 414.23 258Z" fill="white" stroke="#323236" stroke-width="1.15385"/>
<path d="M391.69 274.951H392.463L393.111 275.803L393.281 276.031L394.247 277.315H393.474L392.838 276.462L392.679 276.247L391.69 274.951ZM394.486 273.86C394.486 274.474 394.375 275.004 394.153 275.451C393.932 275.898 393.628 276.243 393.241 276.485C392.855 276.728 392.414 276.849 391.918 276.849C391.421 276.849 390.98 276.728 390.594 276.485C390.207 276.243 389.903 275.898 389.682 275.451C389.46 275.004 389.349 274.474 389.349 273.86C389.349 273.247 389.46 272.716 389.682 272.269C389.903 271.822 390.207 271.478 390.594 271.235C390.98 270.993 391.421 270.872 391.918 270.872C392.414 270.872 392.855 270.993 393.241 271.235C393.628 271.478 393.932 271.822 394.153 272.269C394.375 272.716 394.486 273.247 394.486 273.86ZM393.804 273.86C393.804 273.356 393.72 272.931 393.551 272.585C393.384 272.238 393.158 271.976 392.872 271.798C392.588 271.62 392.27 271.531 391.918 271.531C391.565 271.531 391.246 271.62 390.96 271.798C390.676 271.976 390.45 272.238 390.281 272.585C390.114 272.931 390.031 273.356 390.031 273.86C390.031 274.364 390.114 274.789 390.281 275.136C390.45 275.482 390.676 275.745 390.96 275.923C391.246 276.101 391.565 276.19 391.918 276.19C392.27 276.19 392.588 276.101 392.872 275.923C393.158 275.745 393.384 275.482 393.551 275.136C393.72 274.789 393.804 274.364 393.804 273.86ZM397.432 276.849C397.042 276.849 396.697 276.78 396.398 276.641C396.1 276.501 395.868 276.309 395.702 276.065C395.535 275.819 395.453 275.538 395.454 275.224C395.453 274.978 395.501 274.75 395.599 274.542C395.698 274.332 395.832 274.157 396.003 274.016C396.175 273.874 396.367 273.784 396.579 273.747V273.712C396.301 273.64 396.079 273.484 395.915 273.244C395.75 273.001 395.668 272.726 395.67 272.417C395.668 272.122 395.743 271.857 395.895 271.624C396.046 271.391 396.255 271.208 396.52 271.073C396.787 270.939 397.091 270.872 397.432 270.872C397.769 270.872 398.07 270.939 398.335 271.073C398.6 271.208 398.809 271.391 398.96 271.624C399.114 271.857 399.191 272.122 399.193 272.417C399.191 272.726 399.107 273.001 398.94 273.244C398.775 273.484 398.557 273.64 398.284 273.712V273.747C398.494 273.784 398.684 273.874 398.852 274.016C399.021 274.157 399.155 274.332 399.256 274.542C399.356 274.75 399.407 274.978 399.409 275.224C399.407 275.538 399.322 275.819 399.153 276.065C398.987 276.309 398.755 276.501 398.457 276.641C398.162 276.78 397.82 276.849 397.432 276.849ZM397.432 276.224C397.695 276.224 397.922 276.181 398.114 276.096C398.305 276.011 398.453 275.89 398.557 275.735C398.661 275.58 398.714 275.398 398.716 275.19C398.714 274.97 398.657 274.776 398.545 274.607C398.434 274.439 398.281 274.306 398.088 274.21C397.897 274.113 397.678 274.065 397.432 274.065C397.184 274.065 396.962 274.113 396.767 274.21C396.574 274.306 396.421 274.439 396.31 274.607C396.2 274.776 396.146 274.97 396.148 275.19C396.146 275.398 396.196 275.58 396.298 275.735C396.402 275.89 396.551 276.011 396.744 276.096C396.937 276.181 397.167 276.224 397.432 276.224ZM397.432 273.462C397.64 273.462 397.825 273.421 397.986 273.337C398.149 273.254 398.276 273.138 398.369 272.988C398.462 272.838 398.509 272.663 398.511 272.462C398.509 272.265 398.463 272.094 398.372 271.948C398.281 271.801 398.155 271.687 397.994 271.607C397.833 271.526 397.646 271.485 397.432 271.485C397.214 271.485 397.024 271.526 396.861 271.607C396.698 271.687 396.572 271.801 396.483 271.948C396.394 272.094 396.35 272.265 396.352 272.462C396.35 272.663 396.395 272.838 396.486 272.988C396.579 273.138 396.706 273.254 396.869 273.337C397.032 273.421 397.22 273.462 397.432 273.462Z" fill="#323236"/>
</g>
<defs>
<clipPath id="clip0_2149_205">
<rect width="600" height="307.692" fill="white"/>
</clipPath>
</defs>
</svg>
