<svg width="48" height="48" viewBox="0 0 48 48" fill="none" xmlns="http://www.w3.org/2000/svg">
<path d="M24 18C24 16 25.428 14 28.286 14C29.8014 14 31.2548 13.398 32.3264 12.3264C33.398 11.2548 34 9.80145 34 8.286V7M16 18V17C16 15.4087 16.6321 13.8826 17.7574 12.7574C18.8826 11.6321 20.4087 11 22 11C23.0609 11 24.0783 10.5786 24.8284 9.82843C25.5786 9.07828 26 8.06087 26 7V6M34 23.2V30C34 33.1826 32.7357 36.2348 30.4853 38.4853C28.2348 40.7357 25.1826 42 22 42H18C14.8174 42 11.7652 40.7357 9.51472 38.4853C7.26428 36.2348 6 33.1826 6 30V23.2C6 22.8817 6.12643 22.5765 6.35147 22.3515C6.57652 22.1264 6.88174 22 7.2 22H32.8C33.1183 22 33.4235 22.1264 33.6485 22.3515C33.8736 22.5765 34 22.8817 34 23.2Z" stroke="white" stroke-width="3" stroke-linecap="round" stroke-linejoin="round"/>
<path d="M32 22H37C38.3261 22 39.5979 22.5268 40.5355 23.4645C41.4732 24.4021 42 25.6739 42 27C42 28.3261 41.4732 29.5979 40.5355 30.5355C39.5979 31.4732 38.3261 32 37 32H34" stroke="white" stroke-width="3" stroke-linecap="round" stroke-linejoin="round"/>
</svg>
