<svg width="48" height="48" viewBox="0 0 48 48" fill="none" xmlns="http://www.w3.org/2000/svg">
<path d="M8 36V42M10 20V10C10 8.93913 10.4214 7.92172 11.1716 7.17157C11.9217 6.42143 12.9391 6 14 6H34C35.0609 6 36.0783 6.42143 36.8284 7.17157C37.5786 7.92172 38 8.93913 38 10V20" stroke="white" stroke-width="3" stroke-linecap="round" stroke-linejoin="round"/>
<path d="M40 36H8V29.9C7.07308 29.7108 6.21886 29.2625 5.53655 28.6072C4.85424 27.9519 4.37184 27.1165 4.14538 26.1979C3.91891 25.2794 3.95768 24.3155 4.25717 23.4181C4.55667 22.5208 5.1046 21.7268 5.83733 21.1284C6.57006 20.53 7.45752 20.1517 8.39664 20.0376C9.33575 19.9234 10.288 20.078 11.1427 20.4834C11.9975 20.8888 12.7197 21.5284 13.2255 22.3279C13.7312 23.1274 13.9998 24.054 14 25V28H34V25C34 23.6739 34.5268 22.4022 35.4645 21.4645C36.4021 20.5268 37.6739 20 39 20C40.24 19.9988 41.4361 20.4583 42.3563 21.2894C43.2765 22.1205 43.8551 23.2638 43.9797 24.4975C44.1043 25.7312 43.7661 26.9671 43.0307 27.9655C42.2953 28.9638 41.2152 29.6533 40 29.9V36ZM40 36V42" stroke="white" stroke-width="3" stroke-linecap="round" stroke-linejoin="round"/>
</svg>
