<svg width="48" height="48" viewBox="0 0 48 48" fill="none" xmlns="http://www.w3.org/2000/svg">
<path d="M13.3742 15.5167C13.3742 15.5167 10.3616 24.8558 10.3616 32.0861C10.3616 41.1239 16.3868 42.6302 23.9183 42.6302C31.4499 42.6302 37.4751 41.1239 37.4751 32.0861C37.4751 24.8558 34.4625 15.5167 34.4625 15.5167" stroke="white" stroke-width="3.01261" stroke-linecap="round" stroke-linejoin="round"/>
<path d="M20.9054 32.086L23.918 33.5923L26.9307 32.086M29.1901 21.5418V23.0481M18.646 21.5418V23.0481M10.6776 27.5671H9.16226C0.124422 26.0607 6.05927 13.0854 10.3613 9.49137C13.7414 6.66253 20.0227 5.37012 23.9994 5.37012C27.976 5.37012 34.2573 6.66554 37.6375 9.49137C41.9365 13.0854 47.8713 26.0607 38.8335 27.5671H37.1675" stroke="white" stroke-width="3.01261" stroke-linecap="round" stroke-linejoin="round"/>
</svg>
