<svg width="48" height="48" viewBox="0 0 48 48" fill="none" xmlns="http://www.w3.org/2000/svg">
<path d="M24.294 42.5299L24 42.4699L23.706 42.5299C18.952 43.4799 14.466 42.9499 11.186 40.3299C7.928 37.7199 5.5 32.7459 5.5 23.9999C5.5 15.0539 7.516 11.4199 10.17 10.0919C11.56 9.39794 13.356 9.19594 15.64 9.45794C17.922 9.72194 20.556 10.4339 23.526 11.4239L24.046 11.5959L24.556 11.3919C29.52 9.40794 33.982 8.64594 37.116 10.1099C40.056 11.4799 42.5 15.1859 42.5 23.9999C42.5 32.7479 40.074 37.7199 36.814 40.3279C33.534 42.9519 29.048 43.4819 24.294 42.5299Z" stroke="white" stroke-width="3"/>
<path d="M24 11C24 6 22 4 18 4" stroke="white" stroke-width="3" stroke-linecap="round" stroke-linejoin="round"/>
</svg>
